<svg width="14" height="14" viewBox="0 0 14 14" fill="none" xmlns="http://www.w3.org/2000/svg">
<path d="M5.09615 12.8549V10.8103C5.09614 10.2922 5.51744 9.8713 6.03928 9.86804H7.9554C8.47957 9.86804 8.9045 10.2899 8.9045 10.8103V12.849C8.90449 13.2983 9.26967 13.6636 9.72229 13.6668H11.0295C11.6401 13.6684 12.2262 13.4287 12.6584 13.0006C13.0907 12.5726 13.3337 11.9913 13.3337 11.3852V5.57739C13.3336 5.08775 13.115 4.6233 12.7367 4.30916L8.29564 0.783008C7.51933 0.166244 6.41057 0.186168 5.65725 0.830419L1.31167 4.30916C0.915486 4.61404 0.678694 5.07987 0.666992 5.57739V11.3793C0.666992 12.6426 1.69858 13.6668 2.97111 13.6668H4.24852C4.46644 13.6684 4.67598 13.5835 4.83064 13.4311C4.9853 13.2787 5.07228 13.0713 5.07227 12.8549H5.09615Z" fill="#5570F1"/>
</svg>
